<svg width="25" height="24" viewBox="0 0 25 24" fill="none" xmlns="http://www.w3.org/2000/svg">
<path d="M12.6681 0C10.1204 0 7.68631 0.788851 5.62885 2.28138C5.27515 2.53803 5.17899 3.02385 5.40825 3.39581L7.29342 6.454C7.41536 6.6519 7.61431 6.79 7.84235 6.83509C8.07023 6.88027 8.30684 6.82831 8.49504 6.69182C9.61804 5.87719 10.947 5.44656 12.3383 5.44656C15.9519 5.44656 18.8917 8.38637 18.8917 12C18.8917 15.6135 15.9519 18.5534 12.3383 18.5534C10.947 18.5534 9.61804 18.1227 8.49504 17.3081C8.30684 17.1716 8.0704 17.1197 7.84235 17.1648C7.61439 17.2099 7.41544 17.348 7.29342 17.5459L5.40825 20.6042C5.17891 20.9762 5.27515 21.462 5.62885 21.7186C7.68623 23.2111 10.1204 24 12.6681 24C19.2849 24 24.6681 18.6168 24.6681 12C24.6681 5.38313 19.2849 0 12.6681 0ZM12.6681 22.3294C10.7347 22.3294 8.87767 21.8019 7.25197 20.7969L8.26846 19.1479C9.50386 19.8542 10.8945 20.224 12.3383 20.224C16.873 20.224 20.5622 16.5347 20.5622 12C20.5622 7.4654 16.8729 3.77609 12.3383 3.77609C10.8946 3.77609 9.50386 4.14587 8.26846 4.85222L7.25197 3.20308C8.87759 2.19823 10.7347 1.67055 12.6681 1.67055C18.3637 1.67055 22.9975 6.30434 22.9975 12C22.9975 17.6956 18.3638 22.3294 12.6681 22.3294Z" fill="#FFC400"/>
<path d="M9.38417 15.6715C9.21326 15.9278 9.19734 16.2573 9.34272 16.5289C9.48809 16.8005 9.77116 16.9701 10.0791 16.9701H13.7545C14.0337 16.9701 14.2946 16.8305 14.4495 16.5981L17.206 12.4634C17.3931 12.1828 17.3931 11.8172 17.206 11.5368L14.4496 7.40196C14.2947 7.16955 14.0339 7.03 13.7545 7.03H10.0792C9.77116 7.03 9.48809 7.19962 9.3428 7.47113C9.19742 7.74273 9.21334 8.07235 9.38425 8.32859L10.3561 9.78645H3.18795C1.96742 9.78645 0.974365 10.7794 0.974365 12C0.974365 13.2206 1.96734 14.2136 3.18795 14.2136H10.3561L9.38417 15.6715ZM3.18795 12.543C2.88855 12.543 2.645 12.2994 2.645 12C2.645 11.7006 2.88855 11.4571 3.18795 11.4571H11.9169C12.2249 11.4571 12.508 11.2875 12.6533 11.016C12.7986 10.7444 12.7827 10.4147 12.6118 10.1585L11.6399 8.70063H13.3074L15.507 12L13.3074 15.2994H11.6399L12.6118 13.8416C12.7827 13.5853 12.7986 13.2557 12.6533 12.9841C12.5079 12.7126 12.2248 12.543 11.9169 12.543H3.18795Z" fill="#FFC400"/>
</svg>
